<?xml version="1.0" standalone="no"?>
<!DOCTYPE svg PUBLIC "-//W3C//DTD SVG 20010904//EN"
 "http://www.w3.org/TR/2001/REC-SVG-20010904/DTD/svg10.dtd">
<svg version="1.0" xmlns="http://www.w3.org/2000/svg"
 width="562.000000pt" height="562.000000pt" viewBox="0 0 562.000000 562.000000"
 preserveAspectRatio="xMidYMid meet">

<g transform="translate(0.000000,562.000000) scale(0.100000,-0.100000)"
fill="#000000" stroke="none">
<path d="M1073 5075 c-215 -47 -393 -241 -425 -464 -65 -442 396 -780 794
-583 l77 38 321 -327 c176 -180 320 -330 320 -332 0 -5 -496 -267 -505 -267
-3 0 -32 27 -66 60 -217 213 -567 211 -784 -6 -269 -270 -194 -725 148 -894
221 -109 472 -66 648 113 l71 71 232 -118 c127 -66 233 -120 235 -122 2 -2
-137 -147 -309 -323 l-313 -320 -31 24 c-104 79 -265 118 -408 97 -450 -64
-635 -624 -313 -946 294 -294 786 -178 925 217 l18 52 1097 0 1097 0 18 -52
c51 -145 149 -257 283 -323 404 -199 864 136 799 581 -44 305 -328 516 -634
471 -85 -12 -186 -53 -246 -99 l-34 -26 -297 303 c-163 167 -297 306 -299 311
-2 4 117 67 263 138 l267 130 61 -51 c231 -192 554 -180 762 28 269 270 194
725 -148 894 -246 121 -528 51 -703 -173 l-30 -39 -261 137 -262 138 331 338
331 338 28 -20 c159 -113 385 -128 566 -39 342 169 417 624 148 894 -271 271
-731 195 -894 -147 -22 -45 -42 -97 -46 -114 l-7 -33 -1073 0 -1073 0 -7 33
c-4 17 -24 69 -46 114 -110 231 -369 354 -626 298z m291 -183 c91 -42 149
-100 194 -190 35 -72 37 -81 37 -172 0 -91 -2 -100 -37 -172 -45 -91 -103
-147 -196 -191 -61 -29 -76 -32 -162 -32 -86 0 -101 3 -162 32 -93 44 -151
100 -196 191 -35 72 -37 81 -37 171 0 87 3 102 32 163 40 85 97 147 172 186
78 42 122 52 213 48 61 -3 92 -11 142 -34z m3250 0 c91 -42 149 -100 194 -190
35 -72 37 -81 37 -172 0 -91 -2 -100 -37 -172 -45 -91 -103 -147 -196 -191
-61 -29 -76 -32 -162 -32 -86 0 -101 3 -162 32 -93 44 -151 100 -196 191 -35
72 -37 81 -37 171 0 87 3 102 32 163 40 85 97 147 172 186 78 42 122 52 213
48 61 -3 92 -11 142 -34z m-719 -429 c4 -32 13 -75 20 -95 l13 -38 -62 -33
c-179 -99 -1044 -547 -1056 -547 -11 0 -1028 527 -1078 559 -11 7 -11 16 1 52
8 24 18 70 22 102 l7 57 1063 0 1063 0 7 -57z m103 -263 c12 -16 22 -33 22
-37 0 -4 -153 -163 -339 -353 l-339 -345 -104 54 c-56 30 -150 79 -207 109
l-104 55 34 18 c19 10 252 133 519 273 267 140 488 255 491 256 3 0 15 -13 27
-30z m-1818 -247 c280 -147 506 -271 502 -274 -4 -4 -99 -55 -211 -114 l-203
-107 -65 63 c-35 35 -185 188 -333 339 l-268 276 31 42 c18 23 33 41 34 42 2
0 232 -120 513 -267z m857 -449 l224 -115 -40 -47 c-22 -26 -126 -132 -231
-237 l-191 -190 -226 228 c-156 157 -223 231 -216 238 9 9 443 238 452 239 2
0 104 -52 228 -116z m608 -318 c221 -117 270 -146 267 -162 -1 -10 -7 -54 -14
-96 l-12 -78 -500 0 -500 0 234 239 c129 131 240 239 245 239 6 1 132 -63 280
-142z m-1165 -101 l235 -235 -477 0 c-514 0 -488 -3 -488 51 0 10 -9 46 -21
80 -12 33 -19 62 -17 64 9 9 514 273 523 274 6 1 116 -105 245 -234z m2134
127 c91 -42 149 -100 194 -190 35 -72 37 -81 37 -172 0 -91 -2 -100 -37 -172
-45 -91 -103 -147 -196 -191 -61 -29 -76 -32 -162 -32 -86 0 -101 3 -162 32
-93 44 -151 100 -196 191 -35 72 -37 81 -37 171 0 87 3 102 32 163 40 85 97
147 172 186 78 42 122 52 213 48 61 -3 92 -11 142 -34z m-3250 -50 c91 -42
149 -100 194 -190 35 -72 37 -81 37 -172 0 -91 -2 -100 -37 -172 -45 -91 -103
-147 -196 -191 -61 -29 -76 -32 -162 -32 -86 0 -101 3 -162 32 -93 44 -151
100 -196 191 -35 72 -37 81 -37 171 0 87 3 102 32 163 40 85 97 147 172 186
78 42 122 52 213 48 61 -3 92 -11 142 -34z m1071 -625 c-110 -112 -207 -205
-215 -205 -8 -1 -123 54 -255 122 -191 99 -240 128 -238 142 2 15 27 127 32
142 1 1 198 2 438 2 l437 0 -199 -203z m626 -44 l244 -247 -230 -112 c-127
-62 -236 -113 -244 -113 -14 -1 -477 233 -495 250 -12 11 442 469 464 469 9 0
127 -111 261 -247z m845 220 c4 -16 18 -52 30 -82 13 -29 24 -56 24 -58 0 -7
-550 -275 -558 -271 -4 2 -104 101 -222 221 l-214 217 467 0 467 0 6 -27z
m-1425 -640 c125 -65 227 -119 226 -119 -23 -19 -1052 -512 -1057 -507 -3 4
-18 24 -32 43 l-26 36 325 332 c179 183 327 332 330 332 3 0 108 -53 234 -117z
m1084 -95 c99 -101 240 -244 314 -319 l133 -136 -27 -42 -28 -41 -171 89 c-94
48 -321 164 -504 257 l-333 169 208 102 c114 56 213 102 218 102 6 1 91 -81
190 -181z m-192 -359 c292 -149 533 -272 535 -273 1 -2 -3 -44 -10 -95 l-12
-91 -1081 0 -1081 0 -11 87 c-7 48 -9 91 -5 95 12 12 1106 547 1120 547 7 1
252 -121 545 -270z m-2049 -87 c91 -42 149 -100 194 -190 35 -72 37 -81 37
-172 0 -91 -2 -100 -37 -172 -45 -91 -103 -147 -196 -191 -61 -29 -76 -32
-162 -32 -86 0 -101 3 -162 32 -93 44 -151 100 -196 191 -35 72 -37 81 -37
171 0 87 3 102 32 163 40 85 97 147 172 186 78 42 122 52 213 48 61 -3 92 -11
142 -34z m3290 0 c91 -42 149 -100 194 -190 35 -72 37 -81 37 -172 0 -91 -2
-100 -37 -172 -45 -91 -103 -147 -196 -191 -61 -29 -76 -32 -162 -32 -86 0
-101 3 -162 32 -93 44 -151 100 -196 191 -35 72 -37 81 -37 171 0 87 3 102 32
163 40 85 97 147 172 186 78 42 122 52 213 48 61 -3 92 -11 142 -34z"/>
</g>
</svg>
